<?xml version="1.0" standalone="no"?>
<!DOCTYPE svg PUBLIC "-//W3C//DTD SVG 20010904//EN"
 "http://www.w3.org/TR/2001/REC-SVG-20010904/DTD/svg10.dtd">
<svg version="1.0" xmlns="http://www.w3.org/2000/svg"
 width="500.000000pt" height="500.000000pt" viewBox="0 0 500.000000 500.000000"
 preserveAspectRatio="xMidYMid meet">

<g transform="translate(0.000000,500.000000) scale(0.100000,-0.100000)"
fill="#000000" stroke="none">
<path d="M0 2500 l0 -2500 2500 0 2500 0 0 2500 0 2500 -2500 0 -2500 0 0
-2500z m2423 1477 c9 -1 17 -5 17 -9 0 -4 3 -7 8 -6 31 6 128 -76 159 -136 9
-17 19 -33 22 -36 4 -3 15 -27 26 -54 10 -27 29 -65 42 -84 12 -19 23 -39 23
-44 0 -16 47 -67 55 -60 4 4 5 2 3 -3 -4 -13 37 -66 46 -58 3 3 6 -1 6 -9 0
-9 7 -19 16 -22 8 -3 12 -10 9 -16 -3 -5 0 -10 7 -10 7 -1 33 -19 58 -42 25
-22 39 -37 33 -34 -7 4 -13 3 -13 -3 0 -5 9 -13 20 -16 12 -4 30 -16 41 -28
11 -12 25 -22 31 -22 6 0 13 -7 15 -15 4 -13 3 -13 -7 0 -8 10 -10 11 -8 2 2
-8 6 -12 9 -10 11 6 39 -24 32 -35 -3 -5 -2 -7 4 -4 5 3 15 -3 23 -13 8 -10
17 -17 22 -14 4 3 5 -1 2 -9 -3 -8 3 -17 13 -21 15 -6 15 -9 3 -17 -12 -8 -9
-9 10 -7 14 2 25 -2 26 -9 1 -7 2 -18 3 -24 0 -5 5 -7 11 -4 6 4 7 -1 3 -11
-5 -14 -3 -16 12 -10 11 4 16 4 12 0 -3 -4 3 -15 15 -25 20 -18 13 -28 -8 -11
-5 4 1 -3 13 -16 13 -13 23 -29 23 -37 0 -8 4 -15 10 -15 5 0 7 -6 4 -14 -3
-8 3 -20 14 -27 16 -10 18 -17 10 -32 -8 -15 -7 -18 3 -12 9 6 11 3 6 -8 -4
-10 -2 -16 6 -14 7 1 11 -6 11 -15 -1 -10 2 -15 7 -12 9 5 13 -13 11 -51 0
-11 2 -14 4 -7 3 6 10 9 15 6 6 -3 5 -12 -3 -22 -7 -9 -8 -13 -3 -10 6 4 17 3
25 -3 13 -7 12 -9 -2 -9 -9 0 -20 -5 -23 -10 -4 -6 -1 -9 7 -8 7 2 14 -7 16
-19 2 -13 8 -23 13 -23 5 0 9 -5 9 -11 0 -5 -3 -8 -7 -6 -5 3 -8 -5 -8 -18 0
-13 3 -21 7 -19 11 7 16 -20 7 -37 -5 -9 -2 -26 6 -42 11 -21 11 -25 0 -21
-10 4 -12 -1 -8 -15 3 -12 9 -21 12 -21 4 0 8 -6 8 -14 0 -8 -7 -12 -16 -9
-11 3 -10 0 3 -11 11 -9 14 -16 8 -16 -7 0 -12 -5 -12 -11 0 -5 6 -7 13 -3 9
5 9 4 0 -6 -6 -7 -9 -19 -6 -28 5 -11 3 -13 -8 -7 -12 7 -11 6 1 -9 19 -24 21
-63 3 -78 -23 -19 -34 -45 -18 -45 7 0 11 7 8 16 -4 14 -3 14 5 2 7 -9 7 -21
2 -32 -5 -9 -6 -20 -2 -24 4 -4 -3 -2 -16 4 -22 12 -23 11 -13 -7 9 -16 6 -23
-12 -36 -12 -9 -17 -15 -11 -12 7 3 14 -3 17 -14 6 -23 -3 -26 -22 -7 -11 10
-11 8 -1 -11 13 -26 4 -45 -10 -22 -6 9 -10 10 -10 3 0 -6 5 -15 10 -18 6 -3
10 -14 10 -23 0 -13 -2 -13 -15 4 -15 18 -15 18 -8 0 4 -12 3 -17 -4 -13 -6 4
-16 1 -22 -6 -8 -10 -7 -14 4 -14 8 0 11 5 8 10 -3 6 -1 7 6 3 9 -6 9 -11 1
-21 -8 -9 -8 -15 0 -20 5 -3 10 -12 10 -18 0 -7 -4 -6 -10 3 -5 8 -18 16 -29
16 -11 1 -18 -2 -16 -7 3 -4 -3 -12 -12 -18 -10 -6 -13 -11 -8 -11 6 0 4 -4
-3 -9 -11 -7 -10 -9 3 -14 10 -5 14 -3 9 5 -5 7 -3 8 6 3 10 -6 9 -11 -5 -22
-24 -16 -38 -17 -29 0 4 6 3 8 -1 4 -14 -12 -15 -41 -2 -50 8 -6 6 -7 -5 -4
-9 3 -19 1 -22 -6 -2 -7 -5 -3 -5 8 -1 16 -3 17 -10 5 -6 -8 -8 -17 -5 -21 2
-4 -3 -9 -11 -13 -8 -3 -15 -2 -15 3 0 4 -7 8 -15 8 -11 0 -12 -4 -5 -11 5 -5
10 -17 10 -25 0 -14 -1 -14 -10 -1 -8 13 -11 13 -22 1 -11 -12 -10 -13 2 -6
11 6 10 3 -3 -12 -9 -11 -15 -22 -12 -25 3 -2 -2 -5 -10 -5 -11 0 -12 4 -5 11
22 22 9 28 -14 7 -14 -13 -30 -20 -36 -16 -7 4 -14 -2 -17 -15 -3 -13 -11 -19
-20 -16 -8 3 -12 2 -9 -3 8 -12 -45 -21 -65 -11 -10 6 -24 4 -38 -6 -12 -9
-29 -13 -37 -10 -9 3 -12 1 -9 -4 3 -6 -1 -10 -9 -10 -9 0 -16 -5 -16 -11 0
-5 -5 -7 -11 -3 -7 4 -29 7 -50 8 -34 1 -36 -1 -23 -15 17 -19 18 -33 2 -22
-19 11 -37 12 -44 2 -3 -6 -11 -5 -20 2 -11 9 -14 9 -14 -1 0 -8 -9 -11 -26
-7 -20 3 -24 1 -19 -12 3 -9 -4 -5 -16 9 -11 14 -18 20 -15 14 6 -13 -67 -14
-80 -2 -4 4 -13 3 -21 -3 -9 -9 -13 -8 -13 0 0 6 -5 11 -11 11 -5 0 -7 -6 -3
-12 6 -10 4 -10 -7 -1 -7 7 -18 13 -24 13 -5 0 -4 -4 4 -9 9 -6 10 -11 2 -15
-6 -4 -14 0 -17 9 -5 12 -9 13 -20 4 -12 -10 -13 -9 -8 6 6 15 5 16 -15 3 -17
-10 -23 -10 -29 -1 -6 9 -17 10 -42 3 -27 -8 -38 -6 -54 8 -11 9 -16 12 -13 6
4 -7 0 -15 -8 -18 -21 -8 -25 -7 -22 2 1 4 5 6 9 5 4 -2 5 4 2 11 -3 8 -12 12
-20 9 -18 -7 -74 16 -74 31 0 6 -5 4 -10 -4 -9 -13 -12 -13 -20 2 -7 10 -17
15 -27 11 -12 -5 -14 -3 -8 7 6 9 4 11 -4 5 -8 -4 -18 1 -27 13 -8 12 -21 19
-29 16 -16 -6 -16 -25 0 -36 7 -5 6 -8 -1 -8 -5 0 -19 7 -30 15 -19 15 -19 15
1 9 16 -6 18 -4 8 6 -6 7 -9 20 -6 29 4 13 3 13 -5 2 -9 -12 -13 -12 -27 2 -9
10 -21 15 -26 11 -5 -3 -8 0 -7 7 2 9 -7 13 -24 13 -21 -1 -29 5 -37 27 -5 15
-6 31 -3 35 4 4 1 4 -6 -1 -8 -4 -12 -16 -9 -26 4 -16 2 -17 -14 -8 -14 7 -17
14 -10 27 6 12 4 21 -6 31 -13 12 -14 11 -8 -10 7 -20 6 -22 -7 -12 -8 7 -18
10 -21 6 -4 -3 -7 -1 -7 5 0 7 4 12 8 12 5 0 -1 20 -12 44 -22 48 -33 56 -17
12 6 -14 7 -26 2 -26 -10 0 -20 23 -27 58 -3 15 -1 21 6 17 5 -3 10 -1 10 5 0
7 -7 10 -15 6 -8 -3 -15 -1 -15 4 0 5 -9 7 -20 5 -24 -5 -25 -2 -3 16 14 12
16 12 8 0 -5 -10 -4 -12 4 -7 6 4 9 12 5 17 -3 5 -10 7 -15 4 -5 -4 -9 2 -9
12 0 15 -2 16 -10 3 -6 -9 -10 -10 -10 -3 0 6 5 15 10 18 6 3 10 13 10 21 0 8
-5 12 -10 9 -6 -4 -8 -10 -6 -14 3 -4 -1 -8 -9 -8 -8 0 -14 3 -13 6 0 3 0 15
-1 26 -1 15 -3 17 -10 7 -7 -11 -9 -10 -14 3 -4 9 -3 13 2 10 6 -3 7 16 4 46
-4 35 -13 59 -27 73 -12 12 -15 15 -6 9 25 -19 35 -16 17 5 -10 10 -14 22 -10
27 5 4 -1 5 -11 1 -16 -5 -17 -4 -6 9 10 12 10 15 -1 15 -10 1 -9 5 4 14 12 9
14 16 8 21 -6 3 -11 0 -12 -7 -1 -7 -4 -2 -8 12 -5 14 -5 30 -2 35 11 20 9 36
-4 31 -8 -3 -17 0 -21 6 -4 6 -3 8 4 4 14 -8 12 36 -3 46 -6 5 -3 8 7 8 11 0
15 6 11 20 -3 11 -9 18 -12 15 -4 -2 -8 2 -8 10 0 8 3 13 6 11 3 -2 13 3 21
12 13 14 12 15 -3 9 -9 -3 -19 -1 -23 5 -5 7 -2 8 6 3 10 -6 12 -1 8 19 -3 15
0 33 6 39 13 14 14 37 2 55 -4 7 -3 19 3 26 6 7 7 17 3 21 -4 5 -1 5 6 0 10
-5 11 -10 3 -18 -6 -6 -11 -15 -11 -21 0 -5 6 -1 14 9 8 11 12 23 9 28 -2 4 1
16 8 25 11 14 11 15 -1 5 -20 -18 -34 -16 -16 2 9 9 12 23 9 33 -6 14 -4 15 8
5 12 -10 15 -8 15 7 0 10 -3 17 -6 15 -4 -2 -7 3 -7 11 0 8 13 24 30 36 22 16
26 23 15 29 -11 7 -11 9 0 9 16 0 43 25 36 33 -11 10 20 58 34 52 12 -4 12 -3
3 9 -10 11 -8 17 7 28 10 7 22 20 27 28 8 13 7 13 -11 0 -18 -14 -18 -14 -5 3
8 10 20 16 28 13 8 -3 11 -2 8 3 -3 5 5 17 17 25 12 9 19 16 15 16 -5 0 3 11
17 23 14 13 23 27 19 30 -3 4 -1 7 5 7 6 0 9 7 6 15 -4 9 0 15 9 15 9 0 19 9
22 20 4 11 11 17 17 14 7 -5 8 -2 3 6 -5 8 -2 18 9 26 10 7 17 15 17 18 -3 20
0 26 9 21 6 -3 10 3 10 14 0 12 5 21 12 21 6 0 8 3 5 7 -4 3 1 16 11 27 24 27
69 134 77 183 4 21 14 61 23 88 9 28 17 52 17 55 4 18 40 80 47 80 4 0 8 5 8
10 0 19 64 82 105 103 57 29 84 35 135 30 25 -2 53 -5 63 -6z m-847 -1721 c0
-14 -5 -21 -9 -17 -4 4 -5 15 -1 24 9 24 12 21 10 -7z m102 -231 c-3 -3 -9 2
-12 12 -6 14 -5 15 5 6 7 -7 10 -15 7 -18z m1618 -17 c4 -7 3 -8 -4 -4 -7 4
-12 1 -12 -9 0 -9 -5 -13 -10 -10 -8 5 -7 11 1 21 14 17 16 17 25 2z m-1410
-190 l19 -23 -25 20 c-14 11 -27 21 -29 22 -2 2 0 3 6 3 5 0 18 -10 29 -22z
m1174 -30 c0 -4 -9 -8 -20 -8 -11 0 -20 4 -20 8 0 4 9 8 20 8 11 0 20 -4 20
-8z m-994 -55 c-4 -4 -12 -1 -19 7 -9 10 -9 11 1 6 7 -4 12 -2 13 6 0 11 2 11
6 0 3 -7 2 -16 -1 -19z m858 1 c3 -8 2 -12 -4 -9 -6 3 -10 10 -10 16 0 14 7
11 14 -7z m-609 -44 c-6 -9 8 -14 28 -11 5 1 6 -3 2 -9 -4 -7 -12 -7 -25 0
-24 13 -43 13 -35 0 4 -6 -1 -7 -12 -3 -14 6 -13 9 12 19 37 16 38 16 30 4z
m325 -44 c0 -2 -7 -7 -16 -10 -8 -3 -12 -2 -9 4 6 10 25 14 25 6z"/>
<path d="M1775 3120 c-3 -5 -1 -10 4 -10 6 0 11 5 11 10 0 6 -2 10 -4 10 -3 0
-8 -4 -11 -10z"/>
<path d="M1590 2900 c-9 -6 -10 -10 -3 -10 6 0 15 5 18 10 8 12 4 12 -15 0z"/>
<path d="M1540 2651 c0 -6 4 -13 10 -16 6 -3 7 1 4 9 -7 18 -14 21 -14 7z"/>
<path d="M3392 2361 c-11 -7 -11 -9 0 -14 9 -3 15 1 15 9 0 8 -1 14 -1 14 -1
0 -7 -4 -14 -9z"/>
<path d="M1604 2221 c2 -14 8 -27 14 -29 6 -2 8 -11 5 -20 -4 -15 -3 -15 6 -2
8 11 6 18 -7 28 -9 7 -16 15 -14 18 2 2 1 10 -2 17 -2 6 -3 1 -2 -12z"/>
<path d="M1840 1886 c0 -2 7 -9 15 -16 9 -7 15 -8 15 -2 0 5 -7 12 -15 16 -8
3 -15 4 -15 2z"/>
</g>
</svg>
