<?xml version="1.0" standalone="no"?>
<!DOCTYPE svg PUBLIC "-//W3C//DTD SVG 20010904//EN"
 "http://www.w3.org/TR/2001/REC-SVG-20010904/DTD/svg10.dtd">
<svg version="1.0" xmlns="http://www.w3.org/2000/svg"
 width="512.000000pt" height="512.000000pt" viewBox="0 0 512.000000 512.000000"
 preserveAspectRatio="xMidYMid meet">

<g transform="translate(0.000000,512.000000) scale(0.100000,-0.100000)"
fill="#000000" stroke="none">
<path d="M325 4072 c-113 -40 -200 -113 -249 -210 -22 -43 -28 -49 -51 -45
l-25 5 0 -435 0 -436 38 -10 c20 -5 102 -26 182 -47 290 -74 522 -170 728
-304 51 -33 94 -60 96 -60 6 0 86 118 86 127 0 13 -182 124 -305 185 -188 94
-431 181 -613 218 l-62 13 0 273 c0 213 3 274 13 274 6 0 46 -9 87 -20 41 -11
80 -20 85 -20 16 0 46 151 31 155 -6 2 -44 11 -83 20 -40 10 -73 21 -73 25 0
20 95 111 136 130 115 56 273 8 338 -103 23 -40 53 -133 45 -142 -2 -2 -45 5
-94 15 -129 27 -120 31 -134 -51 -7 -39 -9 -74 -5 -79 15 -13 351 -73 614
-109 818 -113 1742 -126 2600 -35 381 40 836 116 1160 194 47 11 88 20 93 20
4 0 6 -122 5 -272 l-3 -271 -110 -29 c-208 -54 -375 -113 -375 -132 0 -14 39
-116 49 -128 4 -4 57 10 119 32 62 22 177 56 255 76 78 19 159 39 180 45 l37
10 0 436 0 435 -25 -4 c-22 -5 -29 2 -56 53 -41 76 -113 142 -197 182 -124 58
-290 48 -404 -24 -51 -33 -114 -97 -143 -146 l-18 -32 -42 34 c-134 111 -341
127 -491 39 -41 -24 -131 -112 -151 -148 -10 -17 -14 -16 -64 22 -82 61 -141
84 -237 90 -147 8 -283 -48 -364 -153 l-35 -44 -23 24 c-68 73 -198 125 -310
125 -118 0 -245 -54 -313 -133 -19 -21 -19 -21 -33 -2 -30 42 -101 108 -139
130 -70 41 -149 58 -244 53 -99 -6 -157 -28 -240 -90 -50 -38 -54 -39 -64 -22
-27 49 -122 134 -185 165 -64 33 -71 34 -182 34 -105 0 -120 -2 -174 -28 -33
-15 -78 -43 -101 -61 l-41 -34 -27 43 c-40 63 -110 123 -185 158 -58 28 -79
32 -162 35 -71 2 -108 -2 -145 -16z m4414 -148 c53 -10 171 -111 171 -145 0
-8 -107 -34 -325 -78 -82 -17 -161 -33 -173 -36 -23 -6 -24 -4 -17 37 19 114
106 205 216 227 42 9 64 8 128 -5z m-645 -134 c42 -26 104 -93 117 -127 5 -14
8 -27 7 -29 -4 -4 -257 -41 -368 -54 -52 -6 -110 -13 -128 -16 l-33 -5 7 38
c20 114 112 205 221 222 63 9 136 -3 177 -29z m-2829 11 c84 -38 143 -114 160
-205 l7 -37 -33 5 c-19 3 -77 10 -129 16 -116 14 -364 51 -368 55 -2 2 6 21
17 43 25 48 99 115 143 129 55 18 158 15 203 -6z m2107 -90 c63 -24 170 -154
136 -166 -7 -2 -92 -9 -188 -15 -96 -5 -208 -13 -247 -16 -82 -6 -85 -3 -59
60 54 130 214 192 358 137z m-1397 -5 c55 -25 110 -81 131 -132 26 -63 23 -66
-58 -60 -40 3 -156 11 -258 17 -102 7 -186 13 -188 14 -2 2 6 21 17 43 25 48
99 115 143 129 61 20 158 15 213 -11z m720 -61 c45 -28 115 -104 115 -125 0
-5 -24 -12 -52 -15 -66 -8 -434 -2 -443 7 -9 9 26 66 62 100 52 49 109 69 194
66 64 -3 83 -8 124 -33z"/>
<path d="M4620 3400 c-47 -10 -102 -21 -123 -24 -32 -6 -36 -10 -32 -29 2 -12
9 -47 15 -78 l11 -56 127 24 c70 13 131 28 135 32 14 14 -16 146 -33 148 -8 0
-53 -7 -100 -17z"/>
<path d="M4255 3335 c-5 -2 -27 -6 -47 -10 -43 -7 -43 -8 -27 -100 l11 -62 74
12 c40 6 76 13 78 16 2 2 -1 36 -8 74 -11 68 -12 70 -41 72 -17 1 -34 0 -40
-2z"/>
<path d="M2234 3130 c-71 -28 -137 -89 -171 -158 -24 -49 -28 -69 -28 -142 1
-133 10 -146 287 -425 l238 -240 238 240 c277 279 286 291 286 425 1 73 -3 93
-27 142 -34 70 -102 130 -177 159 -81 31 -186 24 -263 -18 l-57 -31 -57 31
c-76 41 -190 48 -269 17z m181 -150 c15 -6 53 -36 86 -67 l59 -56 59 56 c67
64 93 77 155 77 47 0 96 -27 129 -72 25 -34 34 -116 16 -150 -8 -14 -91 -105
-186 -202 l-171 -176 -174 176 c-95 96 -178 185 -185 197 -7 12 -12 43 -13 68
0 110 119 189 225 149z"/>
<path d="M4230 2809 c-256 -137 -502 -336 -698 -564 -232 -271 -426 -637 -512
-967 l-23 -88 -437 0 -437 0 -23 87 c-87 335 -277 693 -514 971 l-97 113 -37
-30 c-20 -16 -48 -41 -61 -55 l-25 -26 51 -53 c253 -263 476 -689 554 -1062
l22 -105 567 0 566 0 18 88 c45 217 173 535 295 731 210 338 525 636 874 825
48 26 87 52 87 57 0 16 -60 129 -68 129 -4 0 -50 -23 -102 -51z"/>
<path d="M1206 2511 c-25 -33 -46 -61 -46 -64 0 -2 25 -26 57 -53 l56 -48 48
54 c27 30 49 59 49 63 0 7 -44 49 -94 88 l-23 18 -47 -58z"/>
<path d="M1908 2178 l-57 -41 38 -56 c20 -31 57 -90 81 -132 l45 -77 67 34
c38 19 68 37 68 40 0 27 -157 274 -174 273 -6 0 -37 -19 -68 -41z"/>
<path d="M2143 1779 c-35 -16 -63 -31 -63 -33 0 -9 61 -136 65 -136 7 0 129
51 134 56 8 7 -52 144 -63 143 -6 0 -39 -14 -73 -30z"/>
</g>
</svg>
