<svg id="svg" xmlns="http://www.w3.org/2000/svg" xmlns:xlink="http://www.w3.org/1999/xlink" width="400" height="400" viewBox="0, 0, 400,400"><g id="svgg"><path id="path0" d="M27.734 81.519 C 18.943 83.810,10.505 90.420,6.517 98.138 C 4.496 102.051,4.104 102.398,2.148 102.019 L 0.000 101.602 0.003 135.371 L 0.005 169.141 15.823 173.155 C 91.101 192.261,139.114 241.834,155.891 317.773 L 156.280 319.531 200.000 319.531 L 243.720 319.531 244.109 317.773 C 261.110 240.819,309.956 191.302,387.695 172.213 L 400.000 169.192 400.000 135.397 L 400.000 101.602 397.852 102.019 C 395.896 102.398,395.504 102.051,393.483 98.138 C 382.184 76.270,350.567 74.760,336.765 95.429 L 333.784 99.893 331.567 97.580 C 317.774 83.183,291.739 87.886,279.981 106.899 C 279.893 107.042,277.890 105.585,275.529 103.662 C 261.456 92.200,240.180 94.425,229.035 108.524 L 226.089 112.250 222.393 108.904 C 209.614 97.334,190.386 97.334,177.607 108.904 L 173.911 112.250 170.965 108.524 C 159.820 94.425,138.544 92.200,124.471 103.662 C 122.110 105.585,120.107 107.042,120.019 106.899 C 108.228 87.833,84.279 83.329,68.844 97.274 L 65.884 99.948 64.157 96.876 C 57.463 84.965,41.056 78.048,27.734 81.519 M43.941 92.961 C 51.298 95.714,56.790 102.822,57.597 110.635 C 57.984 114.392,57.873 114.845,56.555 114.855 C 53.145 114.880,15.982 106.868,15.012 105.898 C 14.114 105.000,17.473 99.881,20.993 96.783 C 26.982 91.512,36.036 90.004,43.941 92.961 M371.619 92.575 C 377.537 94.332,387.047 103.839,384.967 105.919 C 383.995 106.890,347.137 114.844,343.606 114.844 C 342.094 114.844,342.002 114.524,342.402 110.647 C 343.821 96.898,357.561 88.400,371.619 92.575 M100.021 102.100 C 109.030 106.085,117.312 122.656,110.295 122.656 C 105.051 122.656,69.745 117.662,68.881 116.798 C 67.937 115.853,72.521 108.158,75.689 105.369 C 81.854 99.943,92.048 98.573,100.021 102.100 M316.932 101.168 C 323.170 103.021,333.495 114.421,331.102 116.815 C 330.275 117.641,294.390 122.656,289.303 122.656 C 286.805 122.656,286.859 118.145,289.418 112.891 C 294.612 102.228,305.245 97.698,316.932 101.168 M153.576 108.683 C 160.351 111.218,165.513 117.212,166.902 124.156 L 167.383 126.563 162.012 126.556 C 159.058 126.553,149.609 126.031,141.016 125.395 C 132.422 124.760,125.127 124.236,124.805 124.230 C 123.651 124.208,124.254 120.654,125.866 117.969 C 131.656 108.325,142.714 104.620,153.576 108.683 M265.234 109.566 C 270.759 112.392,275.771 118.470,275.778 122.352 C 275.782 124.335,274.691 124.487,250.219 125.908 C 231.747 126.980,232.189 127.071,233.533 122.466 C 237.321 109.486,252.779 103.196,265.234 109.566 M206.277 111.713 C 210.890 112.995,216.284 116.941,218.761 120.846 C 223.086 127.666,224.018 127.344,200.000 127.344 C 175.999 127.344,176.918 127.659,181.208 120.895 C 186.173 113.066,196.945 109.121,206.277 111.713 M368.989 140.359 L 369.464 142.827 363.833 144.038 C 360.737 144.705,356.911 145.474,355.333 145.748 L 352.462 146.245 351.918 142.618 C 351.257 138.206,350.419 138.806,359.766 136.991 C 368.406 135.313,367.989 135.160,368.989 140.359 M335.972 141.992 C 335.990 142.314,336.290 144.046,336.637 145.841 L 337.269 149.104 333.428 149.632 C 328.887 150.257,329.239 150.524,328.576 145.951 L 328.045 142.292 330.624 141.974 C 335.297 141.398,335.937 141.400,335.972 141.992 M184.678 157.813 C 185.467 158.457,188.671 161.533,191.797 164.648 C 194.924 167.764,198.025 170.313,198.690 170.313 C 199.848 170.313,208.594 162.044,208.594 160.949 C 208.594 160.658,209.561 159.922,210.742 159.313 C 211.924 158.704,213.142 157.853,213.449 157.423 C 214.512 155.934,228.910 156.450,229.782 158.008 C 230.202 158.760,230.919 159.375,231.374 159.375 C 232.510 159.375,235.907 162.681,235.924 163.802 C 235.931 164.303,236.289 164.831,236.719 164.974 C 239.512 165.905,239.395 180.592,236.568 184.022 C 230.622 191.237,198.616 222.228,197.828 221.535 C 197.308 221.077,196.089 219.878,195.121 218.869 C 194.152 217.860,192.694 216.454,191.881 215.744 C 191.067 215.034,189.837 213.805,189.146 213.012 C 187.518 211.144,177.918 201.544,176.050 199.916 C 175.258 199.226,174.044 197.995,173.354 197.182 C 172.663 196.369,171.433 195.126,170.619 194.421 C 165.579 190.050,160.178 183.334,159.714 180.858 C 159.432 179.355,158.889 178.125,158.507 178.125 C 158.125 178.125,157.813 176.191,157.813 173.828 C 157.813 171.465,158.108 169.531,158.470 169.531 C 158.832 169.531,159.561 168.084,160.091 166.314 C 161.082 163.008,163.887 159.784,166.493 158.957 C 167.305 158.699,167.969 158.185,167.969 157.814 C 167.969 155.966,182.414 155.965,184.678 157.813 M159.452 238.203 C 161.988 242.242,164.063 245.956,164.063 246.457 C 164.063 247.609,158.335 250.395,158.004 249.403 C 157.869 248.998,155.696 245.318,153.175 241.225 L 148.592 233.784 150.663 232.159 C 153.751 229.736,154.430 230.204,159.452 238.203 M173.776 264.941 C 174.485 266.714,174.963 268.259,174.837 268.375 C 174.712 268.491,173.291 269.132,171.679 269.800 L 168.749 271.014 167.578 268.749 C 165.875 265.457,166.107 264.495,168.945 263.082 C 172.419 261.354,172.326 261.318,173.776 264.941 " stroke="none" fill="#000000" fill-rule="evenodd"></path></g></svg>