<?xml version="1.0" standalone="no"?>
<!DOCTYPE svg PUBLIC "-//W3C//DTD SVG 20010904//EN"
 "http://www.w3.org/TR/2001/REC-SVG-20010904/DTD/svg10.dtd">
<svg version="1.0" xmlns="http://www.w3.org/2000/svg"
 width="250.000000pt" height="250.000000pt" viewBox="0 0 250.000000 250.000000"
 preserveAspectRatio="xMidYMid meet">
<metadata>
Created by potrace 1.15, written by Peter Selinger 2001-2017
</metadata>
<g transform="translate(0.000000,250.000000) scale(0.100000,-0.100000)"
fill="#000000" stroke="none">
<path d="M1134 2439 c-15 -17 -27 -20 -59 -16 -35 5 -38 4 -22 -8 31 -22 15
-47 -51 -81 -35 -17 -81 -46 -102 -63 -21 -17 -50 -31 -63 -31 -14 0 -43 -7
-66 -15 -43 -15 -55 -8 -21 13 40 25 15 92 -35 92 -51 0 -73 -61 -35 -95 29
-26 25 -51 -16 -100 -19 -24 -35 -46 -35 -49 1 -3 1 -18 1 -33 l0 -26 -26 24
c-36 34 -48 59 -35 72 31 31 -19 69 -64 49 -33 -15 -32 -39 4 -60 29 -17 55
-61 97 -164 l22 -57 -44 -26 c-72 -43 -163 -123 -211 -188 -85 -116 -125 -217
-152 -381 l-17 -100 -94 -85 c-52 -47 -95 -90 -95 -96 0 -18 65 -5 118 23 29
15 54 28 57 29 10 6 -8 -503 -19 -547 -7 -25 -30 -72 -51 -105 -56 -86 -99
-184 -112 -252 -13 -72 -1 -156 23 -161 14 -2 15 5 7 58 -17 111 15 202 141
399 156 245 174 303 176 576 1 170 4 205 19 235 10 19 14 31 8 25 -20 -19 -71
-130 -87 -190 -10 -39 -19 -131 -25 -263 l-9 -203 -37 -64 c-21 -36 -40 -63
-42 -61 -2 2 2 21 9 43 11 33 30 539 21 553 -2 2 -6 0 -10 -6 -16 -24 -85 -67
-127 -80 -26 -7 -45 -10 -43 -5 2 4 40 40 84 79 96 84 109 103 118 162 15 96
58 235 91 299 60 114 176 236 272 288 l34 18 27 -33 c27 -32 28 -32 110 -32
45 0 82 -3 82 -6 0 -3 -13 -24 -29 -47 -42 -62 -79 -139 -118 -246 -19 -53
-46 -118 -61 -145 -31 -57 -86 -116 -107 -116 -23 0 -17 -16 10 -28 41 -19
106 -14 161 12 28 13 54 28 57 33 3 5 -19 -3 -50 -19 -37 -19 -71 -28 -102
-28 -68 0 -76 11 -35 43 50 41 80 93 138 247 56 145 89 210 136 264 27 30 36
34 104 39 42 4 117 16 167 27 50 11 95 17 100 14 5 -3 9 -1 9 5 0 5 17 15 38
22 20 6 93 37 162 67 161 71 236 84 345 58 103 -24 185 -69 246 -133 28 -29
64 -60 81 -69 41 -21 133 -29 181 -16 50 14 45 -2 -11 -42 -33 -24 -52 -30
-90 -29 -27 0 -59 6 -71 13 -13 6 -25 9 -28 7 -3 -3 9 -13 26 -22 36 -18 53
-53 81 -168 11 -45 32 -105 45 -135 14 -30 23 -57 20 -60 -3 -3 -25 4 -50 16
-36 17 -45 27 -49 54 -4 18 -10 56 -16 83 -8 45 -8 42 -3 -24 5 -69 4 -74 -13
-67 -28 10 35 -40 74 -59 18 -9 30 -20 27 -25 -3 -5 -29 -16 -58 -24 -41 -12
-67 -13 -111 -6 -85 14 -138 50 -202 136 -31 42 -58 73 -61 70 -7 -7 55 -113
91 -154 25 -28 27 -34 11 -29 -11 3 -33 9 -50 13 -50 12 -137 60 -186 102 -47
42 -96 123 -129 215 l-20 52 7 -49 c3 -27 6 -90 7 -140 0 -81 -3 -98 -27 -148
-28 -58 -95 -128 -122 -128 -14 0 -14 3 -1 27 32 63 41 215 20 326 -11 57 -14
18 -4 -59 11 -87 0 -198 -27 -261 -11 -29 -12 -37 -2 -44 13 -8 63 13 74 31
12 20 24 9 56 -50 17 -33 52 -79 77 -101 42 -40 43 -41 16 -35 -70 17 -173 76
-227 129 -69 70 -131 190 -153 302 -14 67 -15 98 -6 190 6 60 9 111 7 113 -6
6 -25 -125 -25 -172 0 -58 -25 -182 -51 -252 -13 -34 -41 -74 -80 -116 -33
-34 -58 -54 -54 -44 3 11 8 63 10 115 4 92 4 93 -5 27 -13 -100 -16 -108 -65
-180 -47 -70 -48 -86 0 -36 15 16 32 27 36 24 4 -2 10 0 14 6 3 5 26 10 49 10
64 0 142 17 200 43 l50 23 59 -63 c73 -77 167 -128 239 -128 27 0 48 -3 48 -7
0 -5 -12 -8 -26 -8 -14 0 -23 -4 -19 -10 3 -5 15 -10 26 -10 15 0 19 -7 19
-35 0 -19 5 -35 10 -35 6 0 10 5 10 12 0 6 13 32 30 58 41 65 98 95 176 94
106 -1 166 -55 179 -161 6 -52 8 -56 21 -38 8 10 14 38 14 62 0 24 5 43 10 43
6 0 10 -11 10 -24 0 -14 11 -71 25 -128 14 -57 25 -118 25 -135 0 -29 -3 -33
-26 -33 -22 0 -24 3 -18 23 15 49 14 51 -6 15 -13 -24 -28 -38 -40 -38 -20 0
-20 0 0 41 12 23 19 43 16 47 -3 3 -16 -18 -28 -46 -17 -36 -32 -55 -57 -67
l-33 -16 36 66 c21 36 33 65 27 65 -5 0 -25 -30 -43 -68 -19 -37 -55 -96 -81
-131 -26 -35 -47 -67 -47 -72 0 -5 -3 -9 -7 -9 -10 0 -9 133 1 149 13 21 1 22
-40 5 -31 -13 -58 -15 -135 -10 -90 6 -103 5 -188 -24 -100 -33 -157 -38 -187
-15 -10 8 -22 15 -25 15 -12 0 -30 -139 -23 -176 16 -93 95 -181 181 -204 27
-7 73 -26 103 -41 115 -58 236 -68 373 -30 42 11 80 21 84 21 7 0 -4 -161 -13
-184 -3 -9 -2 -16 4 -16 12 0 21 50 27 143 l4 69 58 35 c32 19 65 41 74 49 8
8 19 14 24 14 13 0 -2 -106 -21 -145 -18 -38 -70 -79 -87 -68 -6 3 -7 1 -3 -5
4 -7 27 -12 51 -12 32 0 51 7 73 25 17 14 33 22 36 17 2 -4 6 -34 7 -65 1 -31
6 -57 11 -57 5 0 8 39 7 88 -1 48 1 101 5 117 6 24 4 23 -12 -10 -23 -48 -84
-105 -113 -105 -19 0 -18 3 9 28 35 33 55 96 51 161 -2 28 2 55 11 69 19 29
30 28 30 -4 0 -14 32 -86 70 -160 39 -74 70 -143 70 -153 0 -11 5 -23 10 -26
28 -18 -17 92 -95 230 -50 89 -56 131 -29 202 l17 43 16 -48 c9 -26 40 -85 69
-130 66 -103 118 -211 127 -263 4 -24 12 -39 21 -39 36 0 -33 177 -117 302
-34 49 -39 64 -39 113 0 64 -15 106 -54 153 -37 44 -22 40 44 -11 58 -46 120
-135 120 -175 0 -13 4 -20 10 -17 12 8 3 48 -21 95 -20 40 -98 119 -145 147
-68 40 -112 89 -119 135 -8 49 -71 284 -80 298 -3 6 1 10 9 10 9 0 16 5 16 10
0 6 -5 10 -11 10 -6 0 -9 7 -5 15 9 25 -5 45 -31 45 -14 0 -22 4 -18 10 4 6
14 8 23 6 14 -5 17 4 19 56 2 33 4 62 5 63 2 1 19 5 38 9 l35 6 17 -58 c36
-121 134 -221 224 -228 l49 -4 -53 19 c-56 20 -105 60 -153 125 -38 51 -37 58
6 40 35 -14 116 -19 128 -8 3 4 -5 16 -19 26 -41 33 -133 228 -155 330 -11 50
-26 106 -34 125 -8 20 -15 37 -15 38 0 1 18 5 41 8 48 6 111 47 127 82 12 27
0 43 -21 27 -21 -16 -115 -23 -158 -12 -28 8 -60 31 -107 78 -68 67 -159 121
-231 137 -18 4 -58 18 -88 32 -36 17 -75 26 -109 27 l-53 0 -6 56 c-15 132
-21 137 -17 14 l5 -131 -44 -16 c-24 -9 -88 -34 -143 -57 -54 -23 -145 -52
-202 -65 -201 -45 -446 -57 -480 -23 -8 7 -23 40 -34 72 -12 32 -28 69 -37 83
l-17 26 32 -17 c72 -37 105 -5 105 104 0 39 1 70 2 70 1 0 21 -18 44 -40 70
-66 129 -66 205 2 56 48 90 112 105 193 6 32 12 60 14 62 2 2 18 -26 36 -61
18 -35 52 -83 77 -107 39 -39 49 -43 101 -46 46 -3 65 0 91 16 34 22 92 104
91 130 0 9 -5 5 -10 -9 -6 -13 -11 -26 -13 -28 -2 -2 -26 11 -52 28 -40 25
-59 30 -99 29 -27 -1 -63 4 -78 10 -16 6 -48 11 -72 11 -54 0 -66 22 -30 56
23 21 31 34 22 34 -2 0 -12 -9 -23 -21z m104 -94 c20 -9 47 -26 59 -37 13 -12
23 -17 23 -11 0 6 -7 16 -15 23 -9 7 -13 15 -10 18 3 3 14 -3 25 -13 11 -10
20 -13 20 -7 0 22 37 12 74 -20 l38 -33 -30 -28 c-36 -35 -94 -50 -142 -37
-46 12 -140 113 -140 150 0 15 55 12 98 -5z m-184 -32 c-27 -118 -135 -213
-213 -188 -27 8 -26 17 4 63 29 43 79 85 149 124 63 34 68 35 60 1z m573 -885
c55 -53 143 -103 219 -124 82 -22 67 -34 -42 -34 -93 0 -134 11 -185 52 -41
31 -59 35 -59 14 0 -23 67 -72 122 -90 65 -21 181 -22 198 -1 14 17 40 20 40
5 0 -5 19 -1 43 9 25 11 55 16 75 13 33 -4 33 -5 30 -56 -3 -46 -5 -51 -28
-54 -14 -1 -32 2 -40 7 -12 9 -12 15 3 46 23 47 21 53 -5 28 -13 -12 -40 -26
-62 -32 -36 -9 -38 -9 -33 10 3 11 2 19 -1 17 -4 -2 -50 -25 -103 -51 -66 -32
-105 -58 -123 -82 -15 -19 -33 -35 -40 -35 -23 0 -95 80 -131 145 l-35 62 32
61 c25 50 32 77 36 141 l5 80 23 -47 c13 -26 41 -64 61 -84z m-378 -113 c17
-30 19 -40 9 -47 -25 -16 -141 -48 -175 -48 l-35 0 31 35 c50 57 68 98 96 220
6 27 9 23 29 -46 12 -41 32 -93 45 -114z m1045 -38 c16 -28 40 -64 54 -79 l26
-28 -35 0 c-57 0 -107 19 -127 48 -35 50 -34 60 6 86 20 14 39 25 42 25 3 1
18 -23 34 -52z m-1963 -390 c-10 -75 -39 -192 -46 -185 -2 2 0 80 4 173 6 117
14 190 27 235 l19 65 3 -105 c2 -58 -2 -140 -7 -183z m1827 -218 c45 -16 72
-65 72 -130 -1 -165 -180 -312 -423 -349 -151 -23 -265 17 -387 134 -30 29
-67 62 -82 73 l-27 20 67 65 c99 96 100 96 164 44 29 -24 73 -54 98 -67 38
-20 42 -24 23 -27 -13 -2 -23 -7 -23 -12 0 -11 -51 -3 -100 16 l-35 14 30 -25
c67 -56 145 -70 210 -39 32 15 98 90 125 143 22 43 94 114 135 132 45 21 107
24 153 8z m-509 -95 c18 -5 22 -4 16 5 -12 21 48 -14 70 -40 15 -18 15 -20 3
-10 -16 12 -18 11 -18 -7 0 -12 -5 -32 -11 -46 l-12 -25 -41 21 c-22 11 -61
36 -85 56 l-43 35 23 14 c23 12 45 12 98 -3z"/>
<path d="M1220 2111 c-14 -27 -12 -121 3 -151 17 -34 61 -39 77 -9 15 26 6
109 -16 151 -17 33 -48 37 -64 9z"/>
<path d="M1016 2078 c-38 -54 2 -198 55 -198 29 0 42 37 36 107 -8 99 -53 145
-91 91z"/>
<path d="M969 1131 c9 -16 6 -20 -22 -25 -17 -4 -50 -7 -72 -6 -31 1 -37 -2
-28 -11 9 -9 2 -19 -35 -42 -107 -69 -218 -99 -287 -79 l-30 9 35 16 c19 9 58
37 85 63 34 32 40 39 17 24 -31 -21 -34 -21 -60 -5 -15 10 -38 27 -52 39 -20
17 -19 14 4 -11 16 -18 38 -35 48 -39 10 -3 18 -9 18 -13 0 -11 -94 -61 -116
-61 -17 0 -16 -1 2 -15 10 -8 26 -15 34 -15 41 -1 42 -10 25 -176 -9 -95 -30
-216 -50 -302 -20 -81 -34 -166 -34 -195 l2 -52 8 65 c4 36 23 130 42 210 20
83 38 187 41 245 4 55 9 121 13 148 5 46 6 47 42 47 20 1 53 7 74 14 l37 14
19 -67 c11 -36 22 -90 25 -120 l5 -54 -30 31 c-42 43 -77 46 -118 9 -64 -59
-69 -205 -8 -255 14 -12 14 -16 -4 -45 -10 -18 -19 -40 -19 -49 0 -10 -4 -18
-9 -18 -7 0 -16 36 -35 140 -3 14 -3 -4 -1 -40 3 -36 14 -94 26 -130 24 -70
31 -226 16 -328 -4 -30 -4 -52 1 -52 5 0 13 24 16 53 11 79 33 148 88 271 78
176 91 234 86 395 -4 100 -10 153 -25 198 l-21 63 44 24 c33 19 44 21 44 10 0
-8 7 -14 15 -14 9 0 15 9 15 24 0 31 19 45 52 39 24 -5 25 -6 9 -22 -39 -39
-78 -60 -102 -54 -19 5 -22 3 -12 -7 7 -7 26 -13 42 -13 38 0 31 -12 -15 -27
-35 -12 -35 -12 -17 -32 14 -16 15 -22 5 -26 -10 -3 -8 -10 9 -28 14 -15 23
-40 26 -71 8 -95 70 -177 159 -208 l39 -14 -53 -1 c-58 0 -102 18 -126 52 -9
12 -16 17 -16 10 0 -7 12 -24 27 -38 26 -24 28 -31 33 -142 6 -128 29 -200 70
-222 22 -12 22 -11 -3 21 -24 33 -44 79 -33 79 2 0 46 -21 98 -48 99 -50 98
-50 156 -57 31 -4 29 -1 -18 14 -30 10 -83 33 -117 51 -70 36 -148 113 -139
136 3 9 6 42 6 73 0 57 1 58 25 53 21 -4 24 -9 19 -31 l-5 -26 15 26 c8 15 24
29 36 32 21 5 28 -7 10 -18 -5 -3 -10 -12 -10 -18 0 -7 8 -3 16 8 23 28 67
125 61 132 -3 3 -13 -11 -21 -31 -11 -26 -21 -36 -37 -36 -15 0 -19 4 -15 15
18 44 18 51 2 31 -9 -11 -16 -23 -16 -28 0 -17 -22 -7 -27 13 -4 13 -8 17 -13
9 -12 -19 -62 32 -76 78 -6 23 -8 42 -4 42 5 0 6 33 4 73 -5 67 -3 76 26 125
35 59 64 77 147 88 35 4 68 1 107 -10 63 -19 150 -68 166 -94 14 -26 12 0 -5
48 -8 24 -14 44 -13 45 2 1 17 10 33 18 l30 16 -46 1 c-28 0 -69 10 -101 25
-29 13 -87 29 -128 35 -41 6 -87 17 -103 25 -38 19 -40 19 -28 -4z m-249 -373
c32 -31 32 -32 28 -115 -2 -45 -7 -85 -10 -88 -9 -10 -76 24 -92 47 -18 26
-21 70 -6 99 14 25 32 24 55 -1 14 -16 16 -23 7 -32 -14 -14 -15 -47 -3 -67 5
-8 8 1 7 25 -1 26 3 38 12 37 6 -2 12 1 12 6 0 16 -42 61 -57 61 -55 0 -74
-100 -28 -145 13 -14 29 -25 35 -25 21 0 9 -16 -21 -27 -28 -11 -33 -10 -50
10 -54 64 -42 186 23 231 33 23 53 20 88 -16z"/>
<path d="M1745 1070 c-3 -5 -2 -10 3 -10 18 0 22 -31 7 -61 -16 -30 -42 -38
-63 -17 -9 9 -12 7 -14 -12 -4 -71 19 -144 57 -180 22 -21 30 -22 92 -16 37 3
81 9 96 12 l29 7 -27 -53 c-14 -28 -24 -54 -21 -57 6 -7 56 92 56 112 0 10 10
15 32 15 25 0 29 3 20 12 -9 9 -23 8 -62 -6 -54 -19 -71 -16 -50 9 7 8 12 40
11 71 0 70 -32 139 -75 165 -33 20 -81 25 -91 9z"/>
<path d="M2131 978 c42 -83 77 -135 167 -243 109 -131 139 -181 161 -265 l19
-75 1 51 c2 94 -31 154 -168 310 -33 38 -61 72 -61 77 0 4 9 7 20 7 11 0 20 5
20 10 0 6 -7 10 -15 10 -8 0 -24 9 -35 20 -24 24 -27 14 -3 -12 9 -11 11 -18
5 -18 -15 0 -60 63 -98 134 -16 31 -32 56 -37 56 -4 0 7 -28 24 -62z"/>
<path d="M1102 991 c-11 -7 -11 -12 -1 -29 10 -16 10 -26 -1 -52 -12 -28 -17
-31 -42 -26 -26 5 -28 3 -30 -27 -2 -57 4 -91 20 -119 9 -16 20 -28 24 -28 4
0 8 -5 8 -11 0 -8 -24 -10 -75 -7 -46 2 -71 0 -65 -6 6 -6 3 -15 -8 -23 -16
-14 -15 -14 3 -8 52 18 59 19 52 2 -8 -21 2 -22 17 -2 7 10 39 17 96 21 106 8
152 31 180 89 11 23 20 53 20 66 0 40 -50 129 -84 150 -32 20 -91 25 -114 10z"/>
</g>
</svg>
