<?xml version="1.0" standalone="no"?>
<!DOCTYPE svg PUBLIC "-//W3C//DTD SVG 20010904//EN"
 "http://www.w3.org/TR/2001/REC-SVG-20010904/DTD/svg10.dtd">
<svg version="1.0" xmlns="http://www.w3.org/2000/svg"
 width="300.000000pt" height="300.000000pt" viewBox="0 0 300.000000 300.000000"
 preserveAspectRatio="xMidYMid meet">
<metadata>
Created by potrace 1.10, written by Peter Selinger 2001-2011
</metadata>
<g transform="translate(0.000000,300.000000) scale(0.100000,-0.100000)"
fill="#000000" stroke="none">
<path d="M940 2725 l0 -44 -142 -3 -143 -3 -3 -47 -3 -48 -90 0 -89 0 0 -45 0
-45 -50 0 -50 0 0 -50 0 -50 -44 0 -45 0 -3 -42 -3 -43 -47 -3 -48 -3 0 -95 0
-94 -45 0 -45 0 0 -330 0 -330 45 0 44 0 3 -92 3 -93 48 -3 47 -3 0 -89 0 -89
-47 -3 -48 -3 -3 -187 -2 -187 47 -3 48 -3 3 -93 3 -92 44 0 45 0 0 -44 0 -45
48 -3 47 -3 3 -47 3 -48 90 0 89 0 0 -45 0 -45 850 0 850 0 0 45 0 45 89 0 90
0 3 47 3 48 48 3 47 3 0 45 0 44 45 0 44 0 3 93 3 92 48 3 47 3 0 139 0 139
-47 3 -48 3 -3 93 -3 92 51 0 50 0 0 95 0 95 45 0 45 0 0 375 0 375 -45 0 -45
0 0 94 0 95 -47 3 -48 3 -3 43 -3 42 -45 0 -44 0 0 50 0 50 -50 0 -50 0 0 45
0 45 -89 0 -90 0 -3 48 -3 47 -142 3 -143 3 0 44 0 45 -560 0 -560 0 0 -45z
m280 -850 l0 -45 45 0 45 0 0 -190 0 -190 -45 0 -44 0 -3 -92 -3 -93 -47 -3
-48 -3 0 -45 0 -44 -45 0 -45 0 0 -45 0 -45 -95 0 -95 0 0 45 0 45 95 0 95 0
0 45 0 45 -187 2 -188 3 -3 48 -3 47 -90 0 -89 0 0 45 0 45 -50 0 -50 0 0 145
0 145 50 0 50 0 0 45 0 45 90 0 90 0 0 45 0 45 285 0 285 0 0 -45z m1130 0 l0
-45 90 0 90 0 0 -45 0 -45 50 0 50 0 0 -145 0 -145 -50 0 -50 0 0 -45 0 -45
-89 0 -90 0 -3 -47 -3 -48 -187 -3 -188 -2 0 -45 0 -45 95 0 95 0 0 -45 0 -45
-95 0 -95 0 0 45 0 45 -45 0 -45 0 0 44 0 45 -47 3 -48 3 -3 93 -3 92 -44 0
-45 0 0 190 0 190 45 0 45 0 0 45 0 45 285 0 285 0 0 -45z m-755 -613 l0 -92
48 0 47 0 0 -140 0 -140 -190 0 -190 0 0 140 0 140 48 0 47 0 -3 81 c-2 44 -1
87 2 95 5 12 24 14 98 12 l93 -3 0 -93z m-845 -277 l0 -94 93 -3 92 -3 3 -47
3 -48 45 0 44 0 0 -45 0 -45 470 0 470 0 0 45 0 45 44 0 45 0 3 48 3 47 93 3
92 3 0 95 0 95 48 -3 47 -3 3 -47 3 -48 45 0 44 0 0 -45 0 -45 45 0 45 0 0
-50 0 -50 -90 0 -90 0 0 -45 0 -45 -50 0 -50 0 0 -45 0 -45 -45 0 -45 0 0 -50
0 -50 -95 0 -95 0 0 -45 0 -45 -470 0 -470 0 0 45 0 45 -95 0 -95 0 0 50 0 50
-45 0 -45 0 0 45 0 45 -50 0 -50 0 0 45 0 45 -90 0 -90 0 0 50 0 50 45 0 45 0
0 45 0 45 45 0 45 0 0 43 c0 24 3 47 7 50 3 4 26 7 50 7 l43 0 0 -95z"/>
<path d="M840 1545 l0 -95 95 0 95 0 0 95 0 95 -95 0 -95 0 0 -95z"/>
<path d="M1970 1545 l0 -95 95 0 95 0 0 95 0 95 -95 0 -95 0 0 -95z"/>
<path d="M840 700 l0 -90 50 0 50 0 0 90 0 90 -50 0 -50 0 0 -90z"/>
<path d="M2060 700 l0 -90 50 0 50 0 0 90 0 90 -50 0 -50 0 0 -90z"/>
<path d="M1030 560 l0 -50 95 0 95 0 0 50 0 50 -95 0 -95 0 0 -50z"/>
<path d="M1310 560 l0 -50 190 0 190 0 0 50 0 50 -190 0 -190 0 0 -50z"/>
<path d="M1780 560 l0 -50 95 0 95 0 0 50 0 50 -95 0 -95 0 0 -50z"/>
</g>
</svg>
