<?xml version="1.0" standalone="no"?>
<!DOCTYPE svg PUBLIC "-//W3C//DTD SVG 20010904//EN"
 "http://www.w3.org/TR/2001/REC-SVG-20010904/DTD/svg10.dtd">
<svg version="1.0" xmlns="http://www.w3.org/2000/svg"
 width="128.000000pt" height="128.000000pt" viewBox="0 0 128.000000 128.000000"
 preserveAspectRatio="xMidYMid meet">
<metadata>
Created by potrace 1.10, written by Peter Selinger 2001-2011
</metadata>
<g transform="translate(0.000000,128.000000) scale(0.100000,-0.100000)"
fill="#000000" stroke="none">
<path d="M422 1067 l-212 -212 0 -215 0 -215 213 -213 212 -212 213 213 212
212 0 215 0 215 -213 213 -212 212 -213 -213z m538 -427 l0 -165 -162 -162
-163 -163 -157 157 -158 158 0 175 0 175 157 157 158 158 162 -162 163 -163 0
-165z"/>
<path d="M527 872 l-107 -107 0 -125 0 -125 108 -108 107 -107 108 108 107
107 0 125 0 125 -108 108 -107 107 -108 -108z"/>
</g>
</svg>
